<?xml version="1.0" encoding="UTF-8" standalone="no"?>
<svg xmlns="http://www.w3.org/2000/svg" version="1.2" baseProfile="tiny" viewBox="0.00 0.00 1920.00 1080.00">
<g stroke-width="2.00" fill="none" stroke-linecap="butt">
<path stroke="#c6a49a" vector-effect="non-scaling-stroke" d="
  M 868.88 139.68
  Q 865.52 139.36 864.24 139.93
  Q 852.27 145.22 844.69 146.41
  C 834.85 147.95 825.88 151.79 816.77 156.20
  C 809.83 159.56 803.92 161.94 797.32 164.58
  C 790.78 167.19 784.98 171.90 778.64 175.24
  C 774.75 177.29 771.28 179.82 767.51 182.06
  Q 760.39 186.30 759.11 187.11
  C 751.36 192.05 743.72 196.71 736.63 202.44
  Q 725.32 211.57 714.51 221.25
  C 710.17 225.13 706.52 229.90 702.63 234.32"
/>
<path stroke="#c29e2d" vector-effect="non-scaling-stroke" d="
  M 702.63 234.32
  Q 616.39 319.80 587.90 438.33"
/>
<path stroke="#b6953a" vector-effect="non-scaling-stroke" d="
  M 587.90 438.33
  Q 582.30 461.49 579.20 485.53"
/>
<path stroke="#c27835" vector-effect="non-scaling-stroke" d="
  M 579.20 485.53
  Q 575.44 515.40 575.10 545.75
  Q 575.03 551.99 575.42 558.34"
/>
<path stroke="#c16d36" vector-effect="non-scaling-stroke" d="
  M 575.42 558.34
  C 577.89 654.49 611.57 747.29 673.10 821.34
  Q 673.43 821.74 673.93 821.86
  Q 677.28 822.65 682.24 822.77
  Q 687.30 822.90 696.09 824.51
  Q 702.16 825.62 707.50 825.91
  C 717.83 826.46 726.27 828.03 735.37 827.68
  Q 746.32 827.26 746.64 827.26
  Q 762.29 827.56 777.80 829.66
  Q 785.22 830.67 789.75 830.45
  C 798.85 830.01 807.30 828.86 817.97 828.94
  C 827.55 829.02 836.34 827.76 845.69 826.85
  C 853.87 826.05 862.52 826.06 870.99 825.71
  C 874.18 825.57 877.50 824.28 880.95 824.19
  A 0.32 0.31 -35.0 0 0 881.06 823.58
  Q 867.91 818.54 860.97 806.60
  Q 860.49 805.77 859.90 804.17
  C 859.07 801.94 857.77 800.16 857.18 798.09
  Q 855.34 791.68 854.99 785.03
  C 854.76 780.39 856.06 775.74 857.11 771.12
  C 857.62 768.84 858.94 767.18 859.76 764.93
  Q 860.91 761.76 861.89 760.39
  Q 864.98 756.03 869.43 752.10
  A 1.17 1.17 0.0 0 0 868.58 750.06
  Q 864.33 750.33 861.98 747.19
  Q 860.31 744.94 859.95 740.81
  Q 859.01 730.01 865.41 721.14
  Q 865.69 720.75 865.56 720.29
  L 860.33 701.85
  Q 860.17 701.30 860.65 700.97
  L 861.17 700.60
  A 0.63 0.63 0.0 0 1 862.12 700.89
  Q 864.61 707.31 866.46 713.98
  C 867.46 717.62 869.98 719.02 873.22 716.64
  Q 873.45 716.47 873.20 716.35
  Q 872.98 716.24 872.91 716.11
  Q 872.80 715.88 872.97 715.57
  Q 873.03 715.44 873.11 715.32
  Q 873.34 714.95 873.25 714.52
  L 872.50 711.15
  A 1.09 1.09 0.0 0 1 874.60 710.55
  Q 875.51 713.13 878.13 713.65
  Q 879.45 713.91 882.21 712.90
  Q 887.82 710.85 893.48 713.61
  C 894.84 714.28 897.93 713.18 899.86 713.89
  Q 902.41 714.83 904.00 717.04
  Q 904.76 718.09 905.57 720.68
  C 906.98 725.22 910.88 728.51 910.45 733.25
  Q 909.96 738.59 905.20 739.41
  A 1.51 1.49 -78.2 0 0 904.19 740.08
  Q 902.31 742.94 905.74 742.96
  C 910.76 743.00 913.92 745.60 917.77 747.20
  Q 926.11 750.65 930.66 757.30
  Q 932.11 759.42 935.86 766.39
  Q 938.31 770.96 939.10 775.02
  Q 941.39 786.77 938.37 797.32
  Q 937.20 801.42 933.60 806.10
  Q 932.60 807.40 931.65 809.77
  Q 930.51 812.60 927.95 814.64
  Q 927.43 815.05 928.09 815.07
  Q 939.83 815.34 944.51 814.58
  Q 955.54 812.78 966.77 812.12
  Q 967.31 812.09 967.26 811.55
  C 966.95 808.60 968.62 807.00 968.82 804.45
  Q 969.09 800.99 969.17 797.48
  C 969.24 794.54 971.47 791.42 970.98 788.86
  Q 968.88 777.89 969.13 766.75
  C 969.22 762.66 968.21 759.07 967.78 755.03
  Q 967.73 754.55 967.38 754.20
  C 964.50 751.32 964.24 748.67 965.23 744.48
  Q 966.54 738.89 965.77 733.17
  C 965.49 731.11 964.54 728.86 963.95 726.68
  Q 963.48 724.91 962.14 722.03
  Q 960.09 717.62 960.03 711.50
  Q 959.96 703.99 960.06 682.50
  Q 960.08 677.33 962.59 673.19
  A 1.53 1.50 -30.5 0 0 962.81 672.37
  C 962.78 668.97 963.02 666.72 965.46 664.02
  Q 969.53 659.52 969.01 652.49
  C 968.49 645.41 968.57 638.14 964.84 631.94
  A 1.20 1.20 0.0 0 0 962.67 632.20
  Q 961.21 636.92 960.01 641.85
  C 959.19 645.21 957.32 648.11 956.14 651.63
  Q 952.40 662.83 949.98 671.36
  C 949.26 673.92 947.30 676.10 946.76 678.25
  Q 943.67 690.61 942.24 703.25
  C 942.00 705.39 939.07 709.22 941.30 710.96
  A 1.00 1.00 0.0 0 1 940.51 712.73
  C 933.63 711.52 930.95 704.22 932.33 698.05
  Q 933.68 692.06 934.72 685.99
  C 935.34 682.38 938.45 679.01 938.82 675.24
  Q 940.26 660.72 945.04 646.96
  Q 945.68 645.13 946.17 641.59
  C 946.76 637.41 949.26 634.66 950.00 630.85
  Q 950.57 627.93 951.02 624.99
  C 951.54 621.56 953.24 617.23 953.16 613.01
  C 953.09 609.04 961.59 603.01 964.94 600.86
  Q 965.28 600.65 965.27 600.24
  Q 965.04 594.26 961.65 589.31
  A 1.30 1.29 82.4 0 0 961.01 588.82
  Q 960.40 588.60 960.15 588.03
  Q 959.90 587.46 960.23 586.43
  Q 961.42 582.72 959.65 579.21
  Q 959.42 578.75 959.47 578.25
  L 960.77 565.07
  Q 960.81 564.64 961.13 564.36
  Q 964.14 561.72 965.55 561.36
  C 971.08 559.95 975.84 557.74 981.59 559.85
  Q 983.71 560.63 985.01 560.77
  C 987.59 561.06 990.72 560.56 992.39 562.69
  C 995.24 566.34 990.28 568.57 993.11 571.29
  Q 993.44 571.60 993.88 571.68
  Q 997.22 572.28 999.86 574.40
  Q 1000.69 575.06 1002.95 574.87
  Q 1003.41 574.83 1003.57 574.41
  Q 1004.47 572.07 1003.45 570.01
  C 1001.68 566.44 1000.48 564.28 1000.31 560.15
  C 1000.07 554.03 998.52 547.62 997.96 542.28
  Q 997.18 534.83 996.02 527.68"
/>
<path stroke="#c27835" vector-effect="non-scaling-stroke" d="
  M 996.02 527.68
  Q 994.55 518.65 995.09 509.77
  Q 995.11 509.36 995.50 509.21
  Q 997.78 508.35 998.38 510.26
  Q 1000.22 516.16 1001.37 527.79"
/>
<path stroke="#c16d36" vector-effect="non-scaling-stroke" d="
  M 1001.37 527.79
  Q 1002.21 537.29 1004.20 547.30
  C 1004.90 550.79 1005.27 553.27 1005.30 557.27
  C 1005.32 561.75 1007.32 566.05 1006.55 570.35
  C 1005.96 573.66 1006.99 577.38 1007.60 580.64
  C 1008.24 584.08 1007.64 588.21 1010.21 592.00
  Q 1010.47 592.39 1010.37 592.84
  Q 1009.70 595.91 1010.31 598.99
  Q 1010.40 599.42 1010.80 599.61
  Q 1013.78 600.93 1015.94 603.19
  Q 1017.61 604.93 1018.58 608.29
  Q 1023.30 624.56 1027.00 641.10
  Q 1027.82 644.77 1029.26 648.21
  C 1030.69 651.63 1033.36 656.34 1032.96 660.01
  C 1032.57 663.57 1030.59 666.27 1030.28 669.58
  Q 1029.76 675.26 1030.61 680.87
  Q 1031.57 687.25 1031.67 689.70
  C 1032.03 698.36 1033.16 706.14 1030.00 711.14
  Q 1029.79 711.48 1029.93 711.85
  Q 1030.20 712.55 1029.81 712.96
  Q 1029.43 713.35 1029.70 713.82
  L 1032.11 718.00
  Q 1032.37 718.45 1032.82 718.69
  C 1036.48 720.70 1038.94 722.78 1043.43 721.71
  C 1047.85 720.66 1051.88 720.06 1057.26 719.07
  Q 1062.43 718.12 1065.47 722.51
  Q 1065.73 722.89 1065.53 723.31
  L 1063.30 727.81
  Q 1063.09 728.22 1062.74 728.51
  Q 1058.99 731.59 1055.47 734.96
  C 1053.34 737.00 1051.18 737.51 1048.48 738.28
  Q 1045.07 739.26 1045.47 743.02
  Q 1045.88 746.95 1047.90 750.50
  A 1.56 1.56 0.0 0 1 1048.09 751.42
  Q 1047.62 756.00 1050.08 758.42
  Q 1054.00 762.25 1054.44 766.20
  Q 1054.47 766.51 1054.61 766.74
  Q 1054.83 767.11 1054.95 767.20
  A 1.05 1.05 0.0 0 1 1054.78 768.99
  Q 1050.52 771.05 1047.39 772.76
  Q 1046.91 773.02 1045.83 774.03
  C 1044.20 775.57 1041.55 774.46 1041.06 777.49
  Q 1040.34 781.95 1042.76 785.40
  C 1043.81 786.90 1044.34 789.11 1044.07 790.51
  Q 1043.22 794.86 1042.73 799.28
  A 1.39 1.39 0.0 0 1 1040.41 800.16
  C 1039.64 799.46 1039.10 798.67 1039.04 797.47
  Q 1038.90 794.44 1036.91 792.25
  Q 1036.52 791.81 1036.51 791.22
  L 1036.44 786.86
  Q 1036.43 786.40 1036.71 786.03
  Q 1038.41 783.80 1037.66 781.51
  Q 1036.44 777.83 1035.83 775.09
  Q 1035.46 773.39 1035.60 768.90
  Q 1035.82 762.11 1032.31 756.01
  Q 1032.04 755.55 1031.55 755.34
  Q 1027.06 753.45 1022.19 754.15
  Q 1021.56 754.24 1021.08 754.66
  L 1017.74 757.57
  Q 1017.38 757.88 1017.31 758.34
  Q 1016.54 762.95 1014.15 766.95
  C 1013.16 768.61 1013.14 769.88 1012.88 771.68
  C 1012.28 775.89 1009.28 777.71 1012.54 782.25
  Q 1012.85 782.68 1012.81 783.21
  C 1012.66 785.41 1011.34 787.23 1011.12 789.12
  Q 1009.91 799.71 1015.84 808.14
  Q 1016.97 809.75 1016.45 811.16
  Q 1016.34 811.46 1016.66 811.44
  Q 1037.06 810.19 1057.36 812.19
  C 1069.55 813.39 1081.07 812.95 1093.01 813.06
  Q 1101.99 813.15 1112.96 814.15
  Q 1125.56 815.30 1138.19 816.10
  C 1146.66 816.64 1155.52 818.56 1164.25 819.51
  Q 1174.98 820.68 1181.75 819.45
  Q 1189.06 818.11 1196.50 818.06
  Q 1211.13 817.96 1225.75 817.99
  Q 1231.03 818.01 1235.69 817.27
  C 1241.32 816.37 1245.81 816.22 1251.05 815.80
  A 1.19 1.16 -72.4 0 0 1251.87 815.36
  C 1306.64 746.47 1338.15 663.02 1343.91 575.26"
/>
<path stroke="#c27835" vector-effect="non-scaling-stroke" d="
  M 1343.91 575.26
  Q 1345.26 559.64 1345.01 543.42"
/>
<path stroke="#b6953a" vector-effect="non-scaling-stroke" d="
  M 1345.01 543.42
  Q 1345.36 511.67 1340.79 479.49"
/>
<path stroke="#c29e2d" vector-effect="non-scaling-stroke" d="
  M 1340.79 479.49
  C 1309.41 251.67 1101.70 81.22 868.88 139.68"
/>
<path stroke="#ece933" vector-effect="non-scaling-stroke" d="
  M 1340.79 479.49
  Q 1333.31 478.65 1325.93 479.06
  C 1319.51 479.42 1315.59 474.71 1309.70 474.34
  C 1303.78 473.97 1298.00 472.31 1292.41 472.15
  C 1288.00 472.02 1283.75 472.31 1279.34 471.31
  Q 1276.87 470.76 1274.41 470.55"
/>
<path stroke="#f8cd2e" vector-effect="non-scaling-stroke" d="
  M 1274.41 470.55
  Q 1272.07 469.57 1269.59 467.99
  C 1264.94 465.03 1272.50 455.43 1267.27 452.48
  C 1261.52 449.25 1256.64 446.58 1253.45 440.48
  C 1251.98 437.68 1250.12 436.67 1247.55 435.26
  C 1243.18 432.84 1240.04 429.75 1236.09 427.02
  C 1232.89 424.80 1231.61 422.09 1233.57 418.63
  A 1.07 1.07 0.0 0 1 1234.37 418.11
  C 1238.28 417.67 1242.07 418.87 1245.47 418.61
  C 1250.85 418.20 1262.78 417.33 1262.89 410.02
  Q 1262.99 403.68 1264.51 398.79
  C 1265.09 396.91 1263.83 395.07 1262.17 394.19
  Q 1257.76 391.86 1252.63 388.49
  A 3.58 3.56 29.4 0 1 1251.36 383.98
  C 1254.95 376.36 1258.91 364.55 1245.53 363.95
  C 1237.67 363.60 1236.95 370.16 1235.95 376.51
  Q 1235.70 378.09 1234.83 378.73
  Q 1233.55 379.66 1232.01 379.03
  Q 1223.65 375.60 1215.54 370.42
  A 1.58 1.58 0.0 0 1 1215.36 367.90
  C 1218.65 365.02 1216.71 361.63 1213.24 360.13
  Q 1201.05 354.88 1187.95 352.54
  Q 1186.05 352.20 1183.07 352.57
  Q 1177.83 353.24 1172.94 351.26
  C 1168.87 349.61 1166.25 349.65 1163.25 352.71
  A 1.04 1.04 0.0 0 0 1162.95 353.55
  C 1163.50 359.18 1157.45 360.32 1153.72 357.94
  C 1150.29 355.75 1152.72 351.06 1153.74 348.41
  A 1.85 1.84 -89.0 0 0 1151.42 346.00
  Q 1150.26 346.40 1149.57 347.51
  Q 1146.37 352.68 1140.85 354.81
  C 1138.97 355.53 1137.90 356.63 1136.30 357.72
  A 1.57 1.55 -61.1 0 1 1135.35 358.00
  C 1131.83 357.91 1128.80 357.94 1125.36 359.09
  Q 1121.06 360.52 1116.79 361.95
  A 2.63 2.63 0.0 0 0 1115.01 364.41
  Q 1114.94 370.98 1115.02 377.75
  C 1115.03 378.78 1115.83 380.02 1116.85 380.60
  Q 1138.67 393.12 1161.84 402.89
  Q 1166.09 404.69 1169.73 407.70
  A 1.33 1.33 0.0 0 1 1168.96 410.05
  Q 1160.85 410.49 1152.02 409.59
  Q 1143.72 408.74 1138.75 409.01
  Q 1133.69 409.28 1128.99 411.16
  C 1119.07 415.13 1108.44 417.41 1098.94 421.12
  Q 1089.59 424.77 1080.22 428.37
  Q 1076.69 429.73 1073.05 430.02
  Q 1057.67 431.25 1042.26 431.09
  C 1040.24 431.07 1038.58 431.90 1036.79 431.99
  Q 1027.98 432.39 1019.16 432.90
  Q 1016.16 433.07 1013.52 434.27
  C 1006.10 437.63 999.91 442.10 992.79 445.54
  C 989.74 447.01 986.22 446.98 983.24 448.25
  Q 981.05 449.19 972.88 453.83"
/>
<path stroke="#ece933" vector-effect="non-scaling-stroke" d="
  M 972.88 453.83
  Q 969.36 454.65 966.00 454.54
  Q 951.24 454.09 936.46 454.03
  Q 930.25 454.00 923.34 454.99
  Q 904.21 457.71 886.74 458.87
  Q 878.74 459.40 871.59 460.90
  C 865.82 462.11 859.35 462.44 855.00 463.55
  Q 848.60 465.19 845.75 465.30
  Q 843.33 465.39 837.16 467.88
  C 835.14 468.70 832.81 468.98 830.55 468.98
  C 823.30 468.98 817.05 472.01 809.81 472.01
  Q 794.66 472.01 779.50 472.08
  C 775.05 472.10 770.72 470.49 766.81 470.20
  C 759.08 469.61 752.13 469.09 743.79 467.85
  Q 733.77 466.35 723.62 465.91
  Q 721.26 465.81 718.50 464.84
  Q 713.93 463.23 709.06 462.98
  C 703.95 462.71 698.61 460.38 693.58 458.24
  C 686.66 455.30 677.29 453.55 672.28 452.26
  Q 663.06 449.87 653.61 448.66
  Q 648.13 447.96 643.02 446.66
  Q 632.10 443.88 620.90 442.44
  Q 618.67 442.15 614.72 441.01
  C 611.04 439.94 607.66 440.11 603.73 438.51
  C 599.37 436.74 594.50 436.84 589.88 437.06
  Q 589.36 437.09 589.14 437.56
  Q 588.45 439.05 587.90 438.33"
/>
<path stroke="#fcf993" vector-effect="non-scaling-stroke" d="
  M 702.63 234.32
  C 728.29 273.35 776.17 289.72 819.46 271.94
  C 842.68 262.40 861.97 243.47 871.50 220.51
  Q 888.13 180.49 868.88 139.68"
/>
<path stroke="#ecc43b" vector-effect="non-scaling-stroke" d="
  M 1274.41 470.55
  Q 1277.79 474.96 1282.03 477.86
  C 1283.90 479.14 1285.89 481.26 1285.91 483.25
  Q 1286.09 505.87 1285.96 528.60
  A 2.26 2.25 88.1 0 0 1288.37 530.86
  Q 1289.25 530.79 1290.33 530.49
  C 1293.43 529.61 1299.97 532.76 1302.62 534.41
  C 1305.40 536.13 1307.11 538.59 1308.24 541.55
  A 2.23 2.22 -7.6 0 0 1310.12 542.98
  C 1313.37 543.27 1316.69 542.14 1319.58 542.05
  Q 1326.68 541.83 1333.75 542.52
  Q 1339.36 543.06 1345.01 543.42"
/>
<path stroke="#f79c37" vector-effect="non-scaling-stroke" d="
  M 1343.91 575.26
  C 1340.11 574.78 1336.45 574.35 1332.64 573.09
  Q 1329.23 571.97 1327.76 571.98
  Q 1312.09 572.09 1296.42 571.95
  Q 1294.20 571.93 1290.11 571.33
  C 1286.34 570.78 1282.68 571.49 1279.07 570.22
  Q 1274.53 568.61 1272.74 568.32
  Q 1268.59 567.65 1265.92 567.04
  C 1259.97 565.66 1254.56 565.97 1248.66 565.99
  Q 1244.95 566.01 1240.38 565.19
  Q 1231.61 563.62 1222.69 563.93
  C 1216.69 564.14 1210.86 562.75 1204.72 562.96
  Q 1200.82 563.09 1198.83 562.51
  C 1194.34 561.18 1190.78 558.85 1185.59 557.92
  C 1183.18 557.49 1181.17 556.06 1179.35 555.62
  Q 1175.36 554.66 1168.24 553.99
  C 1153.96 552.66 1151.12 533.99 1137.30 532.16
  C 1132.55 531.53 1127.66 529.20 1123.92 528.59
  C 1119.20 527.83 1114.47 528.19 1110.09 527.30
  Q 1105.29 526.31 1100.51 525.13
  Q 1097.45 524.38 1093.35 524.19
  C 1086.56 523.89 1078.96 521.39 1074.20 520.71
  Q 1063.33 519.15 1052.39 520.66
  C 1049.68 521.03 1044.96 520.67 1042.74 521.68
  Q 1037.14 524.21 1031.05 524.07
  C 1027.37 523.98 1024.09 525.64 1020.44 525.98
  Q 1010.88 526.88 1001.37 527.79"
/>
<path stroke="#f79c37" vector-effect="non-scaling-stroke" d="
  M 996.02 527.68
  C 989.39 528.05 983.80 528.65 977.02 530.63
  C 970.44 532.56 963.77 532.01 957.24 532.00
  C 953.33 532.00 949.64 536.03 945.35 536.82
  Q 940.84 537.64 936.77 539.78
  Q 934.98 540.71 929.05 541.15
  Q 925.14 541.43 922.12 542.51
  C 918.24 543.90 914.72 545.83 910.56 545.95
  C 905.67 546.10 900.92 545.51 896.20 547.16
  Q 893.90 547.97 891.67 547.98
  Q 882.25 548.01 872.82 548.03
  Q 869.32 548.03 864.74 547.16
  Q 858.15 545.90 851.42 545.82
  C 845.05 545.75 840.85 542.10 834.73 541.40
  C 831.31 541.01 827.54 541.13 824.50 539.77
  C 821.16 538.29 817.94 536.38 813.86 535.52
  C 809.05 534.51 804.86 532.86 800.17 531.91
  C 794.17 530.70 788.70 528.13 782.51 527.71
  Q 770.32 526.89 753.49 526.29
  C 736.11 525.67 718.27 526.01 700.69 526.04
  C 695.02 526.05 689.55 526.66 683.99 527.27
  C 673.43 528.41 663.00 528.03 652.49 527.99
  Q 650.13 527.98 647.18 529.39
  C 643.08 531.33 639.81 532.04 635.79 533.17
  C 632.56 534.08 627.75 534.48 624.32 537.09
  Q 619.10 541.07 613.32 541.51
  Q 612.82 541.55 612.39 541.82
  Q 603.88 547.34 593.96 549.29
  C 590.23 550.02 589.35 550.79 586.84 553.32
  Q 583.04 557.13 575.42 558.34"
/>
<path stroke="#ecc43b" vector-effect="non-scaling-stroke" d="
  M 579.20 485.53
  Q 584.14 483.46 585.49 483.24
  Q 600.69 480.79 615.83 483.02
  Q 620.19 483.66 623.20 483.81
  C 627.07 484.02 632.27 483.60 635.63 485.85
  Q 641.87 490.01 649.99 493.22
  Q 659.96 497.16 668.09 504.67
  Q 670.58 506.97 673.03 508.63
  C 676.31 510.84 678.81 513.71 682.94 513.90
  Q 698.44 514.59 713.88 513.08
  Q 715.85 512.88 724.03 511.33
  Q 732.19 509.77 742.25 510.12
  Q 752.89 510.49 763.50 511.34
  Q 765.81 511.52 768.00 512.30
  C 776.45 515.30 784.22 519.56 792.58 522.67
  C 801.15 525.85 809.33 529.82 818.69 530.16
  C 828.74 530.52 835.23 529.26 844.75 525.70
  C 850.84 523.43 855.84 519.81 861.26 516.23
  C 866.53 512.75 872.86 511.36 878.23 508.29
  C 889.47 501.86 899.98 494.47 912.45 489.59
  C 914.71 488.70 916.90 489.07 919.24 489.23
  A 2.50 2.48 9.3 0 0 921.81 487.40
  C 922.56 484.62 924.29 482.90 926.85 481.31
  Q 935.25 476.09 944.21 471.89
  C 950.95 468.74 956.31 464.80 962.38 460.87
  A 1.68 1.65 -59.9 0 1 963.29 460.62
  C 966.93 460.71 970.44 461.18 973.08 459.31
  A 1.17 1.15 -14.0 0 0 973.56 458.53
  Q 973.87 456.53 972.88 453.83"
/>
<path stroke="#c16d36" vector-effect="non-scaling-stroke" d="
  M 991.70 576.88
  Q 992.63 579.42 993.77 579.10
  A 1.74 1.41 -51.4 0 0 993.74 575.94
  L 992.11 576.19
  A 0.52 0.52 0.0 0 0 991.70 576.88"
/>
<path stroke="#c16d36" vector-effect="non-scaling-stroke" d="
  M 994.7470 583.7706
  A 1.44 0.75 37.2 0 0 994.0534 582.3026
  A 1.44 0.75 37.2 0 0 992.4530 582.0294
  A 1.44 0.75 37.2 0 0 993.1466 583.4974
  A 1.44 0.75 37.2 0 0 994.7470 583.7706"
/>
<path stroke="#c16d36" vector-effect="non-scaling-stroke" d="
  M 1001.36 583.36
  Q 1001.12 583.40 1000.98 583.53
  Q 1000.84 583.67 1000.88 584.01
  Q 1001.22 586.99 1003.20 589.32
  A 1.46 1.46 0.0 0 1 1003.55 590.27
  L 1003.51 594.53
  Q 1003.51 594.83 1003.79 594.93
  Q 1003.93 594.98 1004.07 595.04
  A 0.41 0.41 0.0 0 0 1004.64 594.72
  C 1005.05 591.91 1006.02 584.68 1003.12 582.96
  Q 1002.65 582.67 1002.18 582.96
  L 1001.72 583.23
  Q 1001.55 583.33 1001.36 583.36"
/>
<path stroke="#c16d36" vector-effect="non-scaling-stroke" d="
  M 1015.44 665.64
  C 1016.54 659.88 1017.63 649.61 1014.09 644.42
  Q 1011.88 641.19 1010.02 645.41
  A 1.98 1.94 57.6 0 0 1009.85 646.21
  Q 1009.84 652.03 1010.14 657.92
  C 1010.30 661.05 1012.12 663.29 1013.57 665.93
  A 1.01 1.00 36.1 0 0 1015.44 665.64"
/>
<path stroke="#c16d36" vector-effect="non-scaling-stroke" d="
  M 1017.58 690.51
  Q 1016.41 690.91 1016.44 692.02
  C 1016.49 694.58 1016.49 696.61 1017.61 699.14
  C 1018.44 701.03 1018.75 705.62 1021.10 705.98
  A 0.60 0.60 0.0 0 0 1021.77 705.49
  Q 1023.16 697.21 1018.09 690.66
  A 0.45 0.45 0.0 0 0 1017.58 690.51"
/>
<path stroke="#c16d36" vector-effect="non-scaling-stroke" d="
  M 998.37 803.38
  Q 996.03 800.23 994.52 792.66
  Q 994.43 792.17 994.73 791.78
  L 997.46 788.25
  Q 997.67 787.98 997.74 787.65
  Q 998.29 784.79 997.35 782.00
  A 1.16 1.14 44.6 0 1 997.34 781.32
  Q 1000.68 770.03 997.98 758.46
  A 1.80 1.80 0.0 0 0 995.26 757.35
  Q 989.44 761.07 982.45 761.08
  Q 981.93 761.08 981.96 761.60
  C 982.19 764.93 981.55 768.36 981.62 771.32
  C 981.97 786.05 981.03 796.38 985.57 807.23
  Q 986.03 808.34 985.60 811.30
  Q 985.50 812.01 986.22 812.01
  L 1003.01 811.99
  A 0.36 0.36 0.0 0 0 1003.19 811.31
  C 1000.61 809.86 1000.16 805.77 998.37 803.38"
/>
</g>
<path fill="#8c4934" d="
  M 0.00 0.00
  L 1920.00 0.00
  L 1920.00 1080.00
  L 0.00 1080.00
  L 0.00 0.00
  Z
  M 868.88 139.68
  Q 865.52 139.36 864.24 139.93
  Q 852.27 145.22 844.69 146.41
  C 834.85 147.95 825.88 151.79 816.77 156.20
  C 809.83 159.56 803.92 161.94 797.32 164.58
  C 790.78 167.19 784.98 171.90 778.64 175.24
  C 774.75 177.29 771.28 179.82 767.51 182.06
  Q 760.39 186.30 759.11 187.11
  C 751.36 192.05 743.72 196.71 736.63 202.44
  Q 725.32 211.57 714.51 221.25
  C 710.17 225.13 706.52 229.90 702.63 234.32
  Q 616.39 319.80 587.90 438.33
  Q 582.30 461.49 579.20 485.53
  Q 575.44 515.40 575.10 545.75
  Q 575.03 551.99 575.42 558.34
  C 577.89 654.49 611.57 747.29 673.10 821.34
  Q 673.43 821.74 673.93 821.86
  Q 677.28 822.65 682.24 822.77
  Q 687.30 822.90 696.09 824.51
  Q 702.16 825.62 707.50 825.91
  C 717.83 826.46 726.27 828.03 735.37 827.68
  Q 746.32 827.26 746.64 827.26
  Q 762.29 827.56 777.80 829.66
  Q 785.22 830.67 789.75 830.45
  C 798.85 830.01 807.30 828.86 817.97 828.94
  C 827.55 829.02 836.34 827.76 845.69 826.85
  C 853.87 826.05 862.52 826.06 870.99 825.71
  C 874.18 825.57 877.50 824.28 880.95 824.19
  A 0.32 0.31 -35.0 0 0 881.06 823.58
  Q 867.91 818.54 860.97 806.60
  Q 860.49 805.77 859.90 804.17
  C 859.07 801.94 857.77 800.16 857.18 798.09
  Q 855.34 791.68 854.99 785.03
  C 854.76 780.39 856.06 775.74 857.11 771.12
  C 857.62 768.84 858.94 767.18 859.76 764.93
  Q 860.91 761.76 861.89 760.39
  Q 864.98 756.03 869.43 752.10
  A 1.17 1.17 0.0 0 0 868.58 750.06
  Q 864.33 750.33 861.98 747.19
  Q 860.31 744.94 859.95 740.81
  Q 859.01 730.01 865.41 721.14
  Q 865.69 720.75 865.56 720.29
  L 860.33 701.85
  Q 860.17 701.30 860.65 700.97
  L 861.17 700.60
  A 0.63 0.63 0.0 0 1 862.12 700.89
  Q 864.61 707.31 866.46 713.98
  C 867.46 717.62 869.98 719.02 873.22 716.64
  Q 873.45 716.47 873.20 716.35
  Q 872.98 716.24 872.91 716.11
  Q 872.80 715.88 872.97 715.57
  Q 873.03 715.44 873.11 715.32
  Q 873.34 714.95 873.25 714.52
  L 872.50 711.15
  A 1.09 1.09 0.0 0 1 874.60 710.55
  Q 875.51 713.13 878.13 713.65
  Q 879.45 713.91 882.21 712.90
  Q 887.82 710.85 893.48 713.61
  C 894.84 714.28 897.93 713.18 899.86 713.89
  Q 902.41 714.83 904.00 717.04
  Q 904.76 718.09 905.57 720.68
  C 906.98 725.22 910.88 728.51 910.45 733.25
  Q 909.96 738.59 905.20 739.41
  A 1.51 1.49 -78.2 0 0 904.19 740.08
  Q 902.31 742.94 905.74 742.96
  C 910.76 743.00 913.92 745.60 917.77 747.20
  Q 926.11 750.65 930.66 757.30
  Q 932.11 759.42 935.86 766.39
  Q 938.31 770.96 939.10 775.02
  Q 941.39 786.77 938.37 797.32
  Q 937.20 801.42 933.60 806.10
  Q 932.60 807.40 931.65 809.77
  Q 930.51 812.60 927.95 814.64
  Q 927.43 815.05 928.09 815.07
  Q 939.83 815.34 944.51 814.58
  Q 955.54 812.78 966.77 812.12
  Q 967.31 812.09 967.26 811.55
  C 966.95 808.60 968.62 807.00 968.82 804.45
  Q 969.09 800.99 969.17 797.48
  C 969.24 794.54 971.47 791.42 970.98 788.86
  Q 968.88 777.89 969.13 766.75
  C 969.22 762.66 968.21 759.07 967.78 755.03
  Q 967.73 754.55 967.38 754.20
  C 964.50 751.32 964.24 748.67 965.23 744.48
  Q 966.54 738.89 965.77 733.17
  C 965.49 731.11 964.54 728.86 963.95 726.68
  Q 963.48 724.91 962.14 722.03
  Q 960.09 717.62 960.03 711.50
  Q 959.96 703.99 960.06 682.50
  Q 960.08 677.33 962.59 673.19
  A 1.53 1.50 -30.5 0 0 962.81 672.37
  C 962.78 668.97 963.02 666.72 965.46 664.02
  Q 969.53 659.52 969.01 652.49
  C 968.49 645.41 968.57 638.14 964.84 631.94
  A 1.20 1.20 0.0 0 0 962.67 632.20
  Q 961.21 636.92 960.01 641.85
  C 959.19 645.21 957.32 648.11 956.14 651.63
  Q 952.40 662.83 949.98 671.36
  C 949.26 673.92 947.30 676.10 946.76 678.25
  Q 943.67 690.61 942.24 703.25
  C 942.00 705.39 939.07 709.22 941.30 710.96
  A 1.00 1.00 0.0 0 1 940.51 712.73
  C 933.63 711.52 930.95 704.22 932.33 698.05
  Q 933.68 692.06 934.72 685.99
  C 935.34 682.38 938.45 679.01 938.82 675.24
  Q 940.26 660.72 945.04 646.96
  Q 945.68 645.13 946.17 641.59
  C 946.76 637.41 949.26 634.66 950.00 630.85
  Q 950.57 627.93 951.02 624.99
  C 951.54 621.56 953.24 617.23 953.16 613.01
  C 953.09 609.04 961.59 603.01 964.94 600.86
  Q 965.28 600.65 965.27 600.24
  Q 965.04 594.26 961.65 589.31
  A 1.30 1.29 82.4 0 0 961.01 588.82
  Q 960.40 588.60 960.15 588.03
  Q 959.90 587.46 960.23 586.43
  Q 961.42 582.72 959.65 579.21
  Q 959.42 578.75 959.47 578.25
  L 960.77 565.07
  Q 960.81 564.64 961.13 564.36
  Q 964.14 561.72 965.55 561.36
  C 971.08 559.95 975.84 557.74 981.59 559.85
  Q 983.71 560.63 985.01 560.77
  C 987.59 561.06 990.72 560.56 992.39 562.69
  C 995.24 566.34 990.28 568.57 993.11 571.29
  Q 993.44 571.60 993.88 571.68
  Q 997.22 572.28 999.86 574.40
  Q 1000.69 575.06 1002.95 574.87
  Q 1003.41 574.83 1003.57 574.41
  Q 1004.47 572.07 1003.45 570.01
  C 1001.68 566.44 1000.48 564.28 1000.31 560.15
  C 1000.07 554.03 998.52 547.62 997.96 542.28
  Q 997.18 534.83 996.02 527.68
  Q 994.55 518.65 995.09 509.77
  Q 995.11 509.36 995.50 509.21
  Q 997.78 508.35 998.38 510.26
  Q 1000.22 516.16 1001.37 527.79
  Q 1002.21 537.29 1004.20 547.30
  C 1004.90 550.79 1005.27 553.27 1005.30 557.27
  C 1005.32 561.75 1007.32 566.05 1006.55 570.35
  C 1005.96 573.66 1006.99 577.38 1007.60 580.64
  C 1008.24 584.08 1007.64 588.21 1010.21 592.00
  Q 1010.47 592.39 1010.37 592.84
  Q 1009.70 595.91 1010.31 598.99
  Q 1010.40 599.42 1010.80 599.61
  Q 1013.78 600.93 1015.94 603.19
  Q 1017.61 604.93 1018.58 608.29
  Q 1023.30 624.56 1027.00 641.10
  Q 1027.82 644.77 1029.26 648.21
  C 1030.69 651.63 1033.36 656.34 1032.96 660.01
  C 1032.57 663.57 1030.59 666.27 1030.28 669.58
  Q 1029.76 675.26 1030.61 680.87
  Q 1031.57 687.25 1031.67 689.70
  C 1032.03 698.36 1033.16 706.14 1030.00 711.14
  Q 1029.79 711.48 1029.93 711.85
  Q 1030.20 712.55 1029.81 712.96
  Q 1029.43 713.35 1029.70 713.82
  L 1032.11 718.00
  Q 1032.37 718.45 1032.82 718.69
  C 1036.48 720.70 1038.94 722.78 1043.43 721.71
  C 1047.85 720.66 1051.88 720.06 1057.26 719.07
  Q 1062.43 718.12 1065.47 722.51
  Q 1065.73 722.89 1065.53 723.31
  L 1063.30 727.81
  Q 1063.09 728.22 1062.74 728.51
  Q 1058.99 731.59 1055.47 734.96
  C 1053.34 737.00 1051.18 737.51 1048.48 738.28
  Q 1045.07 739.26 1045.47 743.02
  Q 1045.88 746.95 1047.90 750.50
  A 1.56 1.56 0.0 0 1 1048.09 751.42
  Q 1047.62 756.00 1050.08 758.42
  Q 1054.00 762.25 1054.44 766.20
  Q 1054.47 766.51 1054.61 766.74
  Q 1054.83 767.11 1054.95 767.20
  A 1.05 1.05 0.0 0 1 1054.78 768.99
  Q 1050.52 771.05 1047.39 772.76
  Q 1046.91 773.02 1045.83 774.03
  C 1044.20 775.57 1041.55 774.46 1041.06 777.49
  Q 1040.34 781.95 1042.76 785.40
  C 1043.81 786.90 1044.34 789.11 1044.07 790.51
  Q 1043.22 794.86 1042.73 799.28
  A 1.39 1.39 0.0 0 1 1040.41 800.16
  C 1039.64 799.46 1039.10 798.67 1039.04 797.47
  Q 1038.90 794.44 1036.91 792.25
  Q 1036.52 791.81 1036.51 791.22
  L 1036.44 786.86
  Q 1036.43 786.40 1036.71 786.03
  Q 1038.41 783.80 1037.66 781.51
  Q 1036.44 777.83 1035.83 775.09
  Q 1035.46 773.39 1035.60 768.90
  Q 1035.82 762.11 1032.31 756.01
  Q 1032.04 755.55 1031.55 755.34
  Q 1027.06 753.45 1022.19 754.15
  Q 1021.56 754.24 1021.08 754.66
  L 1017.74 757.57
  Q 1017.38 757.88 1017.31 758.34
  Q 1016.54 762.95 1014.15 766.95
  C 1013.16 768.61 1013.14 769.88 1012.88 771.68
  C 1012.28 775.89 1009.28 777.71 1012.54 782.25
  Q 1012.85 782.68 1012.81 783.21
  C 1012.66 785.41 1011.34 787.23 1011.12 789.12
  Q 1009.91 799.71 1015.84 808.14
  Q 1016.97 809.75 1016.45 811.16
  Q 1016.34 811.46 1016.66 811.44
  Q 1037.06 810.19 1057.36 812.19
  C 1069.55 813.39 1081.07 812.95 1093.01 813.06
  Q 1101.99 813.15 1112.96 814.15
  Q 1125.56 815.30 1138.19 816.10
  C 1146.66 816.64 1155.52 818.56 1164.25 819.51
  Q 1174.98 820.68 1181.75 819.45
  Q 1189.06 818.11 1196.50 818.06
  Q 1211.13 817.96 1225.75 817.99
  Q 1231.03 818.01 1235.69 817.27
  C 1241.32 816.37 1245.81 816.22 1251.05 815.80
  A 1.19 1.16 -72.4 0 0 1251.87 815.36
  C 1306.64 746.47 1338.15 663.02 1343.91 575.26
  Q 1345.26 559.64 1345.01 543.42
  Q 1345.36 511.67 1340.79 479.49
  C 1309.41 251.67 1101.70 81.22 868.88 139.68
  Z
  M 991.70 576.88
  Q 992.63 579.42 993.77 579.10
  A 1.74 1.41 -51.4 0 0 993.74 575.94
  L 992.11 576.19
  A 0.52 0.52 0.0 0 0 991.70 576.88
  Z
  M 994.7470 583.7706
  A 1.44 0.75 37.2 0 0 994.0534 582.3026
  A 1.44 0.75 37.2 0 0 992.4530 582.0294
  A 1.44 0.75 37.2 0 0 993.1466 583.4974
  A 1.44 0.75 37.2 0 0 994.7470 583.7706
  Z
  M 1001.36 583.36
  Q 1001.12 583.40 1000.98 583.53
  Q 1000.84 583.67 1000.88 584.01
  Q 1001.22 586.99 1003.20 589.32
  A 1.46 1.46 0.0 0 1 1003.55 590.27
  L 1003.51 594.53
  Q 1003.51 594.83 1003.79 594.93
  Q 1003.93 594.98 1004.07 595.04
  A 0.41 0.41 0.0 0 0 1004.64 594.72
  C 1005.05 591.91 1006.02 584.68 1003.12 582.96
  Q 1002.65 582.67 1002.18 582.96
  L 1001.72 583.23
  Q 1001.55 583.33 1001.36 583.36
  Z
  M 1015.44 665.64
  C 1016.54 659.88 1017.63 649.61 1014.09 644.42
  Q 1011.88 641.19 1010.02 645.41
  A 1.98 1.94 57.6 0 0 1009.85 646.21
  Q 1009.84 652.03 1010.14 657.92
  C 1010.30 661.05 1012.12 663.29 1013.57 665.93
  A 1.01 1.00 36.1 0 0 1015.44 665.64
  Z
  M 1017.58 690.51
  Q 1016.41 690.91 1016.44 692.02
  C 1016.49 694.58 1016.49 696.61 1017.61 699.14
  C 1018.44 701.03 1018.75 705.62 1021.10 705.98
  A 0.60 0.60 0.0 0 0 1021.77 705.49
  Q 1023.16 697.21 1018.09 690.66
  A 0.45 0.45 0.0 0 0 1017.58 690.51
  Z
  M 998.37 803.38
  Q 996.03 800.23 994.52 792.66
  Q 994.43 792.17 994.73 791.78
  L 997.46 788.25
  Q 997.67 787.98 997.74 787.65
  Q 998.29 784.79 997.35 782.00
  A 1.16 1.14 44.6 0 1 997.34 781.32
  Q 1000.68 770.03 997.98 758.46
  A 1.80 1.80 0.0 0 0 995.26 757.35
  Q 989.44 761.07 982.45 761.08
  Q 981.93 761.08 981.96 761.60
  C 982.19 764.93 981.55 768.36 981.62 771.32
  C 981.97 786.05 981.03 796.38 985.57 807.23
  Q 986.03 808.34 985.60 811.30
  Q 985.50 812.01 986.22 812.01
  L 1003.01 811.99
  A 0.36 0.36 0.0 0 0 1003.19 811.31
  C 1000.61 809.86 1000.16 805.77 998.37 803.38
  Z"
/>
<path fill="#f8f226" d="
  M 1340.79 479.49
  Q 1333.31 478.65 1325.93 479.06
  C 1319.51 479.42 1315.59 474.71 1309.70 474.34
  C 1303.78 473.97 1298.00 472.31 1292.41 472.15
  C 1288.00 472.02 1283.75 472.31 1279.34 471.31
  Q 1276.87 470.76 1274.41 470.55
  Q 1272.07 469.57 1269.59 467.99
  C 1264.94 465.03 1272.50 455.43 1267.27 452.48
  C 1261.52 449.25 1256.64 446.58 1253.45 440.48
  C 1251.98 437.68 1250.12 436.67 1247.55 435.26
  C 1243.18 432.84 1240.04 429.75 1236.09 427.02
  C 1232.89 424.80 1231.61 422.09 1233.57 418.63
  A 1.07 1.07 0.0 0 1 1234.37 418.11
  C 1238.28 417.67 1242.07 418.87 1245.47 418.61
  C 1250.85 418.20 1262.78 417.33 1262.89 410.02
  Q 1262.99 403.68 1264.51 398.79
  C 1265.09 396.91 1263.83 395.07 1262.17 394.19
  Q 1257.76 391.86 1252.63 388.49
  A 3.58 3.56 29.4 0 1 1251.36 383.98
  C 1254.95 376.36 1258.91 364.55 1245.53 363.95
  C 1237.67 363.60 1236.95 370.16 1235.95 376.51
  Q 1235.70 378.09 1234.83 378.73
  Q 1233.55 379.66 1232.01 379.03
  Q 1223.65 375.60 1215.54 370.42
  A 1.58 1.58 0.0 0 1 1215.36 367.90
  C 1218.65 365.02 1216.71 361.63 1213.24 360.13
  Q 1201.05 354.88 1187.95 352.54
  Q 1186.05 352.20 1183.07 352.57
  Q 1177.83 353.24 1172.94 351.26
  C 1168.87 349.61 1166.25 349.65 1163.25 352.71
  A 1.04 1.04 0.0 0 0 1162.95 353.55
  C 1163.50 359.18 1157.45 360.32 1153.72 357.94
  C 1150.29 355.75 1152.72 351.06 1153.74 348.41
  A 1.85 1.84 -89.0 0 0 1151.42 346.00
  Q 1150.26 346.40 1149.57 347.51
  Q 1146.37 352.68 1140.85 354.81
  C 1138.97 355.53 1137.90 356.63 1136.30 357.72
  A 1.57 1.55 -61.1 0 1 1135.35 358.00
  C 1131.83 357.91 1128.80 357.94 1125.36 359.09
  Q 1121.06 360.52 1116.79 361.95
  A 2.63 2.63 0.0 0 0 1115.01 364.41
  Q 1114.94 370.98 1115.02 377.75
  C 1115.03 378.78 1115.83 380.02 1116.85 380.60
  Q 1138.67 393.12 1161.84 402.89
  Q 1166.09 404.69 1169.73 407.70
  A 1.33 1.33 0.0 0 1 1168.96 410.05
  Q 1160.85 410.49 1152.02 409.59
  Q 1143.72 408.74 1138.75 409.01
  Q 1133.69 409.28 1128.99 411.16
  C 1119.07 415.13 1108.44 417.41 1098.94 421.12
  Q 1089.59 424.77 1080.22 428.37
  Q 1076.69 429.73 1073.05 430.02
  Q 1057.67 431.25 1042.26 431.09
  C 1040.24 431.07 1038.58 431.90 1036.79 431.99
  Q 1027.98 432.39 1019.16 432.90
  Q 1016.16 433.07 1013.52 434.27
  C 1006.10 437.63 999.91 442.10 992.79 445.54
  C 989.74 447.01 986.22 446.98 983.24 448.25
  Q 981.05 449.19 972.88 453.83
  Q 969.36 454.65 966.00 454.54
  Q 951.24 454.09 936.46 454.03
  Q 930.25 454.00 923.34 454.99
  Q 904.21 457.71 886.74 458.87
  Q 878.74 459.40 871.59 460.90
  C 865.82 462.11 859.35 462.44 855.00 463.55
  Q 848.60 465.19 845.75 465.30
  Q 843.33 465.39 837.16 467.88
  C 835.14 468.70 832.81 468.98 830.55 468.98
  C 823.30 468.98 817.05 472.01 809.81 472.01
  Q 794.66 472.01 779.50 472.08
  C 775.05 472.10 770.72 470.49 766.81 470.20
  C 759.08 469.61 752.13 469.09 743.79 467.85
  Q 733.77 466.35 723.62 465.91
  Q 721.26 465.81 718.50 464.84
  Q 713.93 463.23 709.06 462.98
  C 703.95 462.71 698.61 460.38 693.58 458.24
  C 686.66 455.30 677.29 453.55 672.28 452.26
  Q 663.06 449.87 653.61 448.66
  Q 648.13 447.96 643.02 446.66
  Q 632.10 443.88 620.90 442.44
  Q 618.67 442.15 614.72 441.01
  C 611.04 439.94 607.66 440.11 603.73 438.51
  C 599.37 436.74 594.50 436.84 589.88 437.06
  Q 589.36 437.09 589.14 437.56
  Q 588.45 439.05 587.90 438.33
  Q 616.39 319.80 702.63 234.32
  C 728.29 273.35 776.17 289.72 819.46 271.94
  C 842.68 262.40 861.97 243.47 871.50 220.51
  Q 888.13 180.49 868.88 139.68
  C 1101.70 81.22 1309.41 251.67 1340.79 479.49
  Z"
/>
<path fill="#ffffff" d="
  M 868.88 139.68
  Q 888.13 180.49 871.50 220.51
  C 861.97 243.47 842.68 262.40 819.46 271.94
  C 776.17 289.72 728.29 273.35 702.63 234.32
  C 706.52 229.90 710.17 225.13 714.51 221.25
  Q 725.32 211.57 736.63 202.44
  C 743.72 196.71 751.36 192.05 759.11 187.11
  Q 760.39 186.30 767.51 182.06
  C 771.28 179.82 774.75 177.29 778.64 175.24
  C 784.98 171.90 790.78 167.19 797.32 164.58
  C 803.92 161.94 809.83 159.56 816.77 156.20
  C 825.88 151.79 834.85 147.95 844.69 146.41
  Q 852.27 145.22 864.24 139.93
  Q 865.52 139.36 868.88 139.68
  Z"
/>
<path fill="#f7a736" d="
  M 1274.41 470.55
  Q 1277.79 474.96 1282.03 477.86
  C 1283.90 479.14 1285.89 481.26 1285.91 483.25
  Q 1286.09 505.87 1285.96 528.60
  A 2.26 2.25 88.1 0 0 1288.37 530.86
  Q 1289.25 530.79 1290.33 530.49
  C 1293.43 529.61 1299.97 532.76 1302.62 534.41
  C 1305.40 536.13 1307.11 538.59 1308.24 541.55
  A 2.23 2.22 -7.6 0 0 1310.12 542.98
  C 1313.37 543.27 1316.69 542.14 1319.58 542.05
  Q 1326.68 541.83 1333.75 542.52
  Q 1339.36 543.06 1345.01 543.42
  Q 1345.26 559.64 1343.91 575.26
  C 1340.11 574.78 1336.45 574.35 1332.64 573.09
  Q 1329.23 571.97 1327.76 571.98
  Q 1312.09 572.09 1296.42 571.95
  Q 1294.20 571.93 1290.11 571.33
  C 1286.34 570.78 1282.68 571.49 1279.07 570.22
  Q 1274.53 568.61 1272.74 568.32
  Q 1268.59 567.65 1265.92 567.04
  C 1259.97 565.66 1254.56 565.97 1248.66 565.99
  Q 1244.95 566.01 1240.38 565.19
  Q 1231.61 563.62 1222.69 563.93
  C 1216.69 564.14 1210.86 562.75 1204.72 562.96
  Q 1200.82 563.09 1198.83 562.51
  C 1194.34 561.18 1190.78 558.85 1185.59 557.92
  C 1183.18 557.49 1181.17 556.06 1179.35 555.62
  Q 1175.36 554.66 1168.24 553.99
  C 1153.96 552.66 1151.12 533.99 1137.30 532.16
  C 1132.55 531.53 1127.66 529.20 1123.92 528.59
  C 1119.20 527.83 1114.47 528.19 1110.09 527.30
  Q 1105.29 526.31 1100.51 525.13
  Q 1097.45 524.38 1093.35 524.19
  C 1086.56 523.89 1078.96 521.39 1074.20 520.71
  Q 1063.33 519.15 1052.39 520.66
  C 1049.68 521.03 1044.96 520.67 1042.74 521.68
  Q 1037.14 524.21 1031.05 524.07
  C 1027.37 523.98 1024.09 525.64 1020.44 525.98
  Q 1010.88 526.88 1001.37 527.79
  Q 1000.22 516.16 998.38 510.26
  Q 997.78 508.35 995.50 509.21
  Q 995.11 509.36 995.09 509.77
  Q 994.55 518.65 996.02 527.68
  C 989.39 528.05 983.80 528.65 977.02 530.63
  C 970.44 532.56 963.77 532.01 957.24 532.00
  C 953.33 532.00 949.64 536.03 945.35 536.82
  Q 940.84 537.64 936.77 539.78
  Q 934.98 540.71 929.05 541.15
  Q 925.14 541.43 922.12 542.51
  C 918.24 543.90 914.72 545.83 910.56 545.95
  C 905.67 546.10 900.92 545.51 896.20 547.16
  Q 893.90 547.97 891.67 547.98
  Q 882.25 548.01 872.82 548.03
  Q 869.32 548.03 864.74 547.16
  Q 858.15 545.90 851.42 545.82
  C 845.05 545.75 840.85 542.10 834.73 541.40
  C 831.31 541.01 827.54 541.13 824.50 539.77
  C 821.16 538.29 817.94 536.38 813.86 535.52
  C 809.05 534.51 804.86 532.86 800.17 531.91
  C 794.17 530.70 788.70 528.13 782.51 527.71
  Q 770.32 526.89 753.49 526.29
  C 736.11 525.67 718.27 526.01 700.69 526.04
  C 695.02 526.05 689.55 526.66 683.99 527.27
  C 673.43 528.41 663.00 528.03 652.49 527.99
  Q 650.13 527.98 647.18 529.39
  C 643.08 531.33 639.81 532.04 635.79 533.17
  C 632.56 534.08 627.75 534.48 624.32 537.09
  Q 619.10 541.07 613.32 541.51
  Q 612.82 541.55 612.39 541.82
  Q 603.88 547.34 593.96 549.29
  C 590.23 550.02 589.35 550.79 586.84 553.32
  Q 583.04 557.13 575.42 558.34
  Q 575.03 551.99 575.10 545.75
  Q 575.44 515.40 579.20 485.53
  Q 584.14 483.46 585.49 483.24
  Q 600.69 480.79 615.83 483.02
  Q 620.19 483.66 623.20 483.81
  C 627.07 484.02 632.27 483.60 635.63 485.85
  Q 641.87 490.01 649.99 493.22
  Q 659.96 497.16 668.09 504.67
  Q 670.58 506.97 673.03 508.63
  C 676.31 510.84 678.81 513.71 682.94 513.90
  Q 698.44 514.59 713.88 513.08
  Q 715.85 512.88 724.03 511.33
  Q 732.19 509.77 742.25 510.12
  Q 752.89 510.49 763.50 511.34
  Q 765.81 511.52 768.00 512.30
  C 776.45 515.30 784.22 519.56 792.58 522.67
  C 801.15 525.85 809.33 529.82 818.69 530.16
  C 828.74 530.52 835.23 529.26 844.75 525.70
  C 850.84 523.43 855.84 519.81 861.26 516.23
  C 866.53 512.75 872.86 511.36 878.23 508.29
  C 889.47 501.86 899.98 494.47 912.45 489.59
  C 914.71 488.70 916.90 489.07 919.24 489.23
  A 2.50 2.48 9.3 0 0 921.81 487.40
  C 922.56 484.62 924.29 482.90 926.85 481.31
  Q 935.25 476.09 944.21 471.89
  C 950.95 468.74 956.31 464.80 962.38 460.87
  A 1.68 1.65 -59.9 0 1 963.29 460.62
  C 966.93 460.71 970.44 461.18 973.08 459.31
  A 1.17 1.15 -14.0 0 0 973.56 458.53
  Q 973.87 456.53 972.88 453.83
  Q 981.05 449.19 983.24 448.25
  C 986.22 446.98 989.74 447.01 992.79 445.54
  C 999.91 442.10 1006.10 437.63 1013.52 434.27
  Q 1016.16 433.07 1019.16 432.90
  Q 1027.98 432.39 1036.79 431.99
  C 1038.58 431.90 1040.24 431.07 1042.26 431.09
  Q 1057.67 431.25 1073.05 430.02
  Q 1076.69 429.73 1080.22 428.37
  Q 1089.59 424.77 1098.94 421.12
  C 1108.44 417.41 1119.07 415.13 1128.99 411.16
  Q 1133.69 409.28 1138.75 409.01
  Q 1143.72 408.74 1152.02 409.59
  Q 1160.85 410.49 1168.96 410.05
  A 1.33 1.33 0.0 0 0 1169.73 407.70
  Q 1166.09 404.69 1161.84 402.89
  Q 1138.67 393.12 1116.85 380.60
  C 1115.83 380.02 1115.03 378.78 1115.02 377.75
  Q 1114.94 370.98 1115.01 364.41
  A 2.63 2.63 0.0 0 1 1116.79 361.95
  Q 1121.06 360.52 1125.36 359.09
  C 1128.80 357.94 1131.83 357.91 1135.35 358.00
  A 1.57 1.55 -61.1 0 0 1136.30 357.72
  C 1137.90 356.63 1138.97 355.53 1140.85 354.81
  Q 1146.37 352.68 1149.57 347.51
  Q 1150.26 346.40 1151.42 346.00
  A 1.85 1.84 -89.0 0 1 1153.74 348.41
  C 1152.72 351.06 1150.29 355.75 1153.72 357.94
  C 1157.45 360.32 1163.50 359.18 1162.95 353.55
  A 1.04 1.04 0.0 0 1 1163.25 352.71
  C 1166.25 349.65 1168.87 349.61 1172.94 351.26
  Q 1177.83 353.24 1183.07 352.57
  Q 1186.05 352.20 1187.95 352.54
  Q 1201.05 354.88 1213.24 360.13
  C 1216.71 361.63 1218.65 365.02 1215.36 367.90
  A 1.58 1.58 0.0 0 0 1215.54 370.42
  Q 1223.65 375.60 1232.01 379.03
  Q 1233.55 379.66 1234.83 378.73
  Q 1235.70 378.09 1235.95 376.51
  C 1236.95 370.16 1237.67 363.60 1245.53 363.95
  C 1258.91 364.55 1254.95 376.36 1251.36 383.98
  A 3.58 3.56 29.4 0 0 1252.63 388.49
  Q 1257.76 391.86 1262.17 394.19
  C 1263.83 395.07 1265.09 396.91 1264.51 398.79
  Q 1262.99 403.68 1262.89 410.02
  C 1262.78 417.33 1250.85 418.20 1245.47 418.61
  C 1242.07 418.87 1238.28 417.67 1234.37 418.11
  A 1.07 1.07 0.0 0 0 1233.57 418.63
  C 1231.61 422.09 1232.89 424.80 1236.09 427.02
  C 1240.04 429.75 1243.18 432.84 1247.55 435.26
  C 1250.12 436.67 1251.98 437.68 1253.45 440.48
  C 1256.64 446.58 1261.52 449.25 1267.27 452.48
  C 1272.50 455.43 1264.94 465.03 1269.59 467.99
  Q 1272.07 469.57 1274.41 470.55
  Z"
/>
<path fill="#e0e040" d="
  M 972.88 453.83
  Q 973.87 456.53 973.56 458.53
  A 1.17 1.15 -14.0 0 1 973.08 459.31
  C 970.44 461.18 966.93 460.71 963.29 460.62
  A 1.68 1.65 -59.9 0 0 962.38 460.87
  C 956.31 464.80 950.95 468.74 944.21 471.89
  Q 935.25 476.09 926.85 481.31
  C 924.29 482.90 922.56 484.62 921.81 487.40
  A 2.50 2.48 9.3 0 1 919.24 489.23
  C 916.90 489.07 914.71 488.70 912.45 489.59
  C 899.98 494.47 889.47 501.86 878.23 508.29
  C 872.86 511.36 866.53 512.75 861.26 516.23
  C 855.84 519.81 850.84 523.43 844.75 525.70
  C 835.23 529.26 828.74 530.52 818.69 530.16
  C 809.33 529.82 801.15 525.85 792.58 522.67
  C 784.22 519.56 776.45 515.30 768.00 512.30
  Q 765.81 511.52 763.50 511.34
  Q 752.89 510.49 742.25 510.12
  Q 732.19 509.77 724.03 511.33
  Q 715.85 512.88 713.88 513.08
  Q 698.44 514.59 682.94 513.90
  C 678.81 513.71 676.31 510.84 673.03 508.63
  Q 670.58 506.97 668.09 504.67
  Q 659.96 497.16 649.99 493.22
  Q 641.87 490.01 635.63 485.85
  C 632.27 483.60 627.07 484.02 623.20 483.81
  Q 620.19 483.66 615.83 483.02
  Q 600.69 480.79 585.49 483.24
  Q 584.14 483.46 579.20 485.53
  Q 582.30 461.49 587.90 438.33
  Q 588.45 439.05 589.14 437.56
  Q 589.36 437.09 589.88 437.06
  C 594.50 436.84 599.37 436.74 603.73 438.51
  C 607.66 440.11 611.04 439.94 614.72 441.01
  Q 618.67 442.15 620.90 442.44
  Q 632.10 443.88 643.02 446.66
  Q 648.13 447.96 653.61 448.66
  Q 663.06 449.87 672.28 452.26
  C 677.29 453.55 686.66 455.30 693.58 458.24
  C 698.61 460.38 703.95 462.71 709.06 462.98
  Q 713.93 463.23 718.50 464.84
  Q 721.26 465.81 723.62 465.91
  Q 733.77 466.35 743.79 467.85
  C 752.13 469.09 759.08 469.61 766.81 470.20
  C 770.72 470.49 775.05 472.10 779.50 472.08
  Q 794.66 472.01 809.81 472.01
  C 817.05 472.01 823.30 468.98 830.55 468.98
  C 832.81 468.98 835.14 468.70 837.16 467.88
  Q 843.33 465.39 845.75 465.30
  Q 848.60 465.19 855.00 463.55
  C 859.35 462.44 865.82 462.11 871.59 460.90
  Q 878.74 459.40 886.74 458.87
  Q 904.21 457.71 923.34 454.99
  Q 930.25 454.00 936.46 454.03
  Q 951.24 454.09 966.00 454.54
  Q 969.36 454.65 972.88 453.83
  Z"
/>
<path fill="#e0e040" d="
  M 1340.79 479.49
  Q 1345.36 511.67 1345.01 543.42
  Q 1339.36 543.06 1333.75 542.52
  Q 1326.68 541.83 1319.58 542.05
  C 1316.69 542.14 1313.37 543.27 1310.12 542.98
  A 2.23 2.22 -7.6 0 1 1308.24 541.55
  C 1307.11 538.59 1305.40 536.13 1302.62 534.41
  C 1299.97 532.76 1293.43 529.61 1290.33 530.49
  Q 1289.25 530.79 1288.37 530.86
  A 2.26 2.25 88.1 0 1 1285.96 528.60
  Q 1286.09 505.87 1285.91 483.25
  C 1285.89 481.26 1283.90 479.14 1282.03 477.86
  Q 1277.79 474.96 1274.41 470.55
  Q 1276.87 470.76 1279.34 471.31
  C 1283.75 472.31 1288.00 472.02 1292.41 472.15
  C 1298.00 472.31 1303.78 473.97 1309.70 474.34
  C 1315.59 474.71 1319.51 479.42 1325.93 479.06
  Q 1333.31 478.65 1340.79 479.49
  Z"
/>
<path fill="#f69038" d="
  M 1343.91 575.26
  C 1338.15 663.02 1306.64 746.47 1251.87 815.36
  A 1.19 1.16 -72.4 0 1 1251.05 815.80
  C 1245.81 816.22 1241.32 816.37 1235.69 817.27
  Q 1231.03 818.01 1225.75 817.99
  Q 1211.13 817.96 1196.50 818.06
  Q 1189.06 818.11 1181.75 819.45
  Q 1174.98 820.68 1164.25 819.51
  C 1155.52 818.56 1146.66 816.64 1138.19 816.10
  Q 1125.56 815.30 1112.96 814.15
  Q 1101.99 813.15 1093.01 813.06
  C 1081.07 812.95 1069.55 813.39 1057.36 812.19
  Q 1037.06 810.19 1016.66 811.44
  Q 1016.34 811.46 1016.45 811.16
  Q 1016.97 809.75 1015.84 808.14
  Q 1009.91 799.71 1011.12 789.12
  C 1011.34 787.23 1012.66 785.41 1012.81 783.21
  Q 1012.85 782.68 1012.54 782.25
  C 1009.28 777.71 1012.28 775.89 1012.88 771.68
  C 1013.14 769.88 1013.16 768.61 1014.15 766.95
  Q 1016.54 762.95 1017.31 758.34
  Q 1017.38 757.88 1017.74 757.57
  L 1021.08 754.66
  Q 1021.56 754.24 1022.19 754.15
  Q 1027.06 753.45 1031.55 755.34
  Q 1032.04 755.55 1032.31 756.01
  Q 1035.82 762.11 1035.60 768.90
  Q 1035.46 773.39 1035.83 775.09
  Q 1036.44 777.83 1037.66 781.51
  Q 1038.41 783.80 1036.71 786.03
  Q 1036.43 786.40 1036.44 786.86
  L 1036.51 791.22
  Q 1036.52 791.81 1036.91 792.25
  Q 1038.90 794.44 1039.04 797.47
  C 1039.10 798.67 1039.64 799.46 1040.41 800.16
  A 1.39 1.39 0.0 0 0 1042.73 799.28
  Q 1043.22 794.86 1044.07 790.51
  C 1044.34 789.11 1043.81 786.90 1042.76 785.40
  Q 1040.34 781.95 1041.06 777.49
  C 1041.55 774.46 1044.20 775.57 1045.83 774.03
  Q 1046.91 773.02 1047.39 772.76
  Q 1050.52 771.05 1054.78 768.99
  A 1.05 1.05 0.0 0 0 1054.95 767.20
  Q 1054.83 767.11 1054.61 766.74
  Q 1054.47 766.51 1054.44 766.20
  Q 1054.00 762.25 1050.08 758.42
  Q 1047.62 756.00 1048.09 751.42
  A 1.56 1.56 0.0 0 0 1047.90 750.50
  Q 1045.88 746.95 1045.47 743.02
  Q 1045.07 739.26 1048.48 738.28
  C 1051.18 737.51 1053.34 737.00 1055.47 734.96
  Q 1058.99 731.59 1062.74 728.51
  Q 1063.09 728.22 1063.30 727.81
  L 1065.53 723.31
  Q 1065.73 722.89 1065.47 722.51
  Q 1062.43 718.12 1057.26 719.07
  C 1051.88 720.06 1047.85 720.66 1043.43 721.71
  C 1038.94 722.78 1036.48 720.70 1032.82 718.69
  Q 1032.37 718.45 1032.11 718.00
  L 1029.70 713.82
  Q 1029.43 713.35 1029.81 712.96
  Q 1030.20 712.55 1029.93 711.85
  Q 1029.79 711.48 1030.00 711.14
  C 1033.16 706.14 1032.03 698.36 1031.67 689.70
  Q 1031.57 687.25 1030.61 680.87
  Q 1029.76 675.26 1030.28 669.58
  C 1030.59 666.27 1032.57 663.57 1032.96 660.01
  C 1033.36 656.34 1030.69 651.63 1029.26 648.21
  Q 1027.82 644.77 1027.00 641.10
  Q 1023.30 624.56 1018.58 608.29
  Q 1017.61 604.93 1015.94 603.19
  Q 1013.78 600.93 1010.80 599.61
  Q 1010.40 599.42 1010.31 598.99
  Q 1009.70 595.91 1010.37 592.84
  Q 1010.47 592.39 1010.21 592.00
  C 1007.64 588.21 1008.24 584.08 1007.60 580.64
  C 1006.99 577.38 1005.96 573.66 1006.55 570.35
  C 1007.32 566.05 1005.32 561.75 1005.30 557.27
  C 1005.27 553.27 1004.90 550.79 1004.20 547.30
  Q 1002.21 537.29 1001.37 527.79
  Q 1010.88 526.88 1020.44 525.98
  C 1024.09 525.64 1027.37 523.98 1031.05 524.07
  Q 1037.14 524.21 1042.74 521.68
  C 1044.96 520.67 1049.68 521.03 1052.39 520.66
  Q 1063.33 519.15 1074.20 520.71
  C 1078.96 521.39 1086.56 523.89 1093.35 524.19
  Q 1097.45 524.38 1100.51 525.13
  Q 1105.29 526.31 1110.09 527.30
  C 1114.47 528.19 1119.20 527.83 1123.92 528.59
  C 1127.66 529.20 1132.55 531.53 1137.30 532.16
  C 1151.12 533.99 1153.96 552.66 1168.24 553.99
  Q 1175.36 554.66 1179.35 555.62
  C 1181.17 556.06 1183.18 557.49 1185.59 557.92
  C 1190.78 558.85 1194.34 561.18 1198.83 562.51
  Q 1200.82 563.09 1204.72 562.96
  C 1210.86 562.75 1216.69 564.14 1222.69 563.93
  Q 1231.61 563.62 1240.38 565.19
  Q 1244.95 566.01 1248.66 565.99
  C 1254.56 565.97 1259.97 565.66 1265.92 567.04
  Q 1268.59 567.65 1272.74 568.32
  Q 1274.53 568.61 1279.07 570.22
  C 1282.68 571.49 1286.34 570.78 1290.11 571.33
  Q 1294.20 571.93 1296.42 571.95
  Q 1312.09 572.09 1327.76 571.98
  Q 1329.23 571.97 1332.64 573.09
  C 1336.45 574.35 1340.11 574.78 1343.91 575.26
  Z"
/>
<path fill="#f69038" d="
  M 996.02 527.68
  Q 997.18 534.83 997.96 542.28
  C 998.52 547.62 1000.07 554.03 1000.31 560.15
  C 1000.48 564.28 1001.68 566.44 1003.45 570.01
  Q 1004.47 572.07 1003.57 574.41
  Q 1003.41 574.83 1002.95 574.87
  Q 1000.69 575.06 999.86 574.40
  Q 997.22 572.28 993.88 571.68
  Q 993.44 571.60 993.11 571.29
  C 990.28 568.57 995.24 566.34 992.39 562.69
  C 990.72 560.56 987.59 561.06 985.01 560.77
  Q 983.71 560.63 981.59 559.85
  C 975.84 557.74 971.08 559.95 965.55 561.36
  Q 964.14 561.72 961.13 564.36
  Q 960.81 564.64 960.77 565.07
  L 959.47 578.25
  Q 959.42 578.75 959.65 579.21
  Q 961.42 582.72 960.23 586.43
  Q 959.90 587.46 960.15 588.03
  Q 960.40 588.60 961.01 588.82
  A 1.30 1.29 82.4 0 1 961.65 589.31
  Q 965.04 594.26 965.27 600.24
  Q 965.28 600.65 964.94 600.86
  C 961.59 603.01 953.09 609.04 953.16 613.01
  C 953.24 617.23 951.54 621.56 951.02 624.99
  Q 950.57 627.93 950.00 630.85
  C 949.26 634.66 946.76 637.41 946.17 641.59
  Q 945.68 645.13 945.04 646.96
  Q 940.26 660.72 938.82 675.24
  C 938.45 679.01 935.34 682.38 934.72 685.99
  Q 933.68 692.06 932.33 698.05
  C 930.95 704.22 933.63 711.52 940.51 712.73
  A 1.00 1.00 0.0 0 0 941.30 710.96
  C 939.07 709.22 942.00 705.39 942.24 703.25
  Q 943.67 690.61 946.76 678.25
  C 947.30 676.10 949.26 673.92 949.98 671.36
  Q 952.40 662.83 956.14 651.63
  C 957.32 648.11 959.19 645.21 960.01 641.85
  Q 961.21 636.92 962.67 632.20
  A 1.20 1.20 0.0 0 1 964.84 631.94
  C 968.57 638.14 968.49 645.41 969.01 652.49
  Q 969.53 659.52 965.46 664.02
  C 963.02 666.72 962.78 668.97 962.81 672.37
  A 1.53 1.50 -30.5 0 1 962.59 673.19
  Q 960.08 677.33 960.06 682.50
  Q 959.96 703.99 960.03 711.50
  Q 960.09 717.62 962.14 722.03
  Q 963.48 724.91 963.95 726.68
  C 964.54 728.86 965.49 731.11 965.77 733.17
  Q 966.54 738.89 965.23 744.48
  C 964.24 748.67 964.50 751.32 967.38 754.20
  Q 967.73 754.55 967.78 755.03
  C 968.21 759.07 969.22 762.66 969.13 766.75
  Q 968.88 777.89 970.98 788.86
  C 971.47 791.42 969.24 794.54 969.17 797.48
  Q 969.09 800.99 968.82 804.45
  C 968.62 807.00 966.95 808.60 967.26 811.55
  Q 967.31 812.09 966.77 812.12
  Q 955.54 812.78 944.51 814.58
  Q 939.83 815.34 928.09 815.07
  Q 927.43 815.05 927.95 814.64
  Q 930.51 812.60 931.65 809.77
  Q 932.60 807.40 933.60 806.10
  Q 937.20 801.42 938.37 797.32
  Q 941.39 786.77 939.10 775.02
  Q 938.31 770.96 935.86 766.39
  Q 932.11 759.42 930.66 757.30
  Q 926.11 750.65 917.77 747.20
  C 913.92 745.60 910.76 743.00 905.74 742.96
  Q 902.31 742.94 904.19 740.08
  A 1.51 1.49 -78.2 0 1 905.20 739.41
  Q 909.96 738.59 910.45 733.25
  C 910.88 728.51 906.98 725.22 905.57 720.68
  Q 904.76 718.09 904.00 717.04
  Q 902.41 714.83 899.86 713.89
  C 897.93 713.18 894.84 714.28 893.48 713.61
  Q 887.82 710.85 882.21 712.90
  Q 879.45 713.91 878.13 713.65
  Q 875.51 713.13 874.60 710.55
  A 1.09 1.09 0.0 0 0 872.50 711.15
  L 873.25 714.52
  Q 873.34 714.95 873.11 715.32
  Q 873.03 715.44 872.97 715.57
  Q 872.80 715.88 872.91 716.11
  Q 872.98 716.24 873.20 716.35
  Q 873.45 716.47 873.22 716.64
  C 869.98 719.02 867.46 717.62 866.46 713.98
  Q 864.61 707.31 862.12 700.89
  A 0.63 0.63 0.0 0 0 861.17 700.60
  L 860.65 700.97
  Q 860.17 701.30 860.33 701.85
  L 865.56 720.29
  Q 865.69 720.75 865.41 721.14
  Q 859.01 730.01 859.95 740.81
  Q 860.31 744.94 861.98 747.19
  Q 864.33 750.33 868.58 750.06
  A 1.17 1.17 0.0 0 1 869.43 752.10
  Q 864.98 756.03 861.89 760.39
  Q 860.91 761.76 859.76 764.93
  C 858.94 767.18 857.62 768.84 857.11 771.12
  C 856.06 775.74 854.76 780.39 854.99 785.03
  Q 855.34 791.68 857.18 798.09
  C 857.77 800.16 859.07 801.94 859.90 804.17
  Q 860.49 805.77 860.97 806.60
  Q 867.91 818.54 881.06 823.58
  A 0.32 0.31 -35.0 0 1 880.95 824.19
  C 877.50 824.28 874.18 825.57 870.99 825.71
  C 862.52 826.06 853.87 826.05 845.69 826.85
  C 836.34 827.76 827.55 829.02 817.97 828.94
  C 807.30 828.86 798.85 830.01 789.75 830.45
  Q 785.22 830.67 777.80 829.66
  Q 762.29 827.56 746.64 827.26
  Q 746.32 827.26 735.37 827.68
  C 726.27 828.03 717.83 826.46 707.50 825.91
  Q 702.16 825.62 696.09 824.51
  Q 687.30 822.90 682.24 822.77
  Q 677.28 822.65 673.93 821.86
  Q 673.43 821.74 673.10 821.34
  C 611.57 747.29 577.89 654.49 575.42 558.34
  Q 583.04 557.13 586.84 553.32
  C 589.35 550.79 590.23 550.02 593.96 549.29
  Q 603.88 547.34 612.39 541.82
  Q 612.82 541.55 613.32 541.51
  Q 619.10 541.07 624.32 537.09
  C 627.75 534.48 632.56 534.08 635.79 533.17
  C 639.81 532.04 643.08 531.33 647.18 529.39
  Q 650.13 527.98 652.49 527.99
  C 663.00 528.03 673.43 528.41 683.99 527.27
  C 689.55 526.66 695.02 526.05 700.69 526.04
  C 718.27 526.01 736.11 525.67 753.49 526.29
  Q 770.32 526.89 782.51 527.71
  C 788.70 528.13 794.17 530.70 800.17 531.91
  C 804.86 532.86 809.05 534.51 813.86 535.52
  C 817.94 536.38 821.16 538.29 824.50 539.77
  C 827.54 541.13 831.31 541.01 834.73 541.40
  C 840.85 542.10 845.05 545.75 851.42 545.82
  Q 858.15 545.90 864.74 547.16
  Q 869.32 548.03 872.82 548.03
  Q 882.25 548.01 891.67 547.98
  Q 893.90 547.97 896.20 547.16
  C 900.92 545.51 905.67 546.10 910.56 545.95
  C 914.72 545.83 918.24 543.90 922.12 542.51
  Q 925.14 541.43 929.05 541.15
  Q 934.98 540.71 936.77 539.78
  Q 940.84 537.64 945.35 536.82
  C 949.64 536.03 953.33 532.00 957.24 532.00
  C 963.77 532.01 970.44 532.56 977.02 530.63
  C 983.80 528.65 989.39 528.05 996.02 527.68
  Z"
/>
<path fill="#f69038" d="
  M 991.70 576.88
  A 0.52 0.52 0.0 0 1 992.11 576.19
  L 993.74 575.94
  A 1.74 1.41 -51.4 0 1 993.77 579.10
  Q 992.63 579.42 991.70 576.88
  Z"
/>
<ellipse fill="#f69038" cx="0.00" cy="0.00" transform="translate(993.60,582.90) rotate(37.2)" rx="1.44" ry="0.75"/>
<path fill="#f69038" d="
  M 1001.72 583.23
  L 1002.18 582.96
  Q 1002.65 582.67 1003.12 582.96
  C 1006.02 584.68 1005.05 591.91 1004.64 594.72
  A 0.41 0.41 0.0 0 1 1004.07 595.04
  Q 1003.93 594.98 1003.79 594.93
  Q 1003.51 594.83 1003.51 594.53
  L 1003.55 590.27
  A 1.46 1.46 0.0 0 0 1003.20 589.32
  Q 1001.22 586.99 1000.88 584.01
  Q 1000.84 583.67 1000.98 583.53
  Q 1001.12 583.40 1001.36 583.36
  Q 1001.55 583.33 1001.72 583.23
  Z"
/>
<path fill="#f69038" d="
  M 1014.09 644.42
  C 1017.63 649.61 1016.54 659.88 1015.44 665.64
  A 1.01 1.00 36.1 0 1 1013.57 665.93
  C 1012.12 663.29 1010.30 661.05 1010.14 657.92
  Q 1009.84 652.03 1009.85 646.21
  A 1.98 1.94 57.6 0 1 1010.02 645.41
  Q 1011.88 641.19 1014.09 644.42
  Z"
/>
<path fill="#f69038" d="
  M 1017.58 690.51
  A 0.45 0.45 0.0 0 1 1018.09 690.66
  Q 1023.16 697.21 1021.77 705.49
  A 0.60 0.60 0.0 0 1 1021.10 705.98
  C 1018.75 705.62 1018.44 701.03 1017.61 699.14
  C 1016.49 696.61 1016.49 694.58 1016.44 692.02
  Q 1016.41 690.91 1017.58 690.51
  Z"
/>
<path fill="#f69038" d="
  M 998.37 803.38
  C 1000.16 805.77 1000.61 809.86 1003.19 811.31
  A 0.36 0.36 0.0 0 1 1003.01 811.99
  L 986.22 812.01
  Q 985.50 812.01 985.60 811.30
  Q 986.03 808.34 985.57 807.23
  C 981.03 796.38 981.97 786.05 981.62 771.32
  C 981.55 768.36 982.19 764.93 981.96 761.60
  Q 981.93 761.08 982.45 761.08
  Q 989.44 761.07 995.26 757.35
  A 1.80 1.80 0.0 0 1 997.98 758.46
  Q 1000.68 770.03 997.34 781.32
  A 1.16 1.14 44.6 0 0 997.35 782.00
  Q 998.29 784.79 997.74 787.65
  Q 997.67 787.98 997.46 788.25
  L 994.73 791.78
  Q 994.43 792.17 994.52 792.66
  Q 996.03 800.23 998.37 803.38
  Z"
/>
</svg>
